<svg preserveAspectRatio="none" width="100%" height="100%" overflow="visible" style="display: block;" viewBox="0 0 24 24" fill="none" xmlns="http://www.w3.org/2000/svg">
<g id="lucide/car-front">
<path id="Vector" d="M21 7.78813L19 9.78813M19 9.78813L17.5 6.08813C17.3585 5.70946 17.1057 5.38255 16.7747 5.15048C16.4437 4.91841 16.0502 4.79207 15.646 4.78813H8.4C7.9925 4.77877 7.59188 4.89414 7.25177 5.11879C6.91166 5.34344 6.64832 5.66665 6.497 6.04513L5 9.78813M19 9.78813H5M19 9.78813C20.1046 9.78813 21 10.6836 21 11.7881V15.7881C21 16.8927 20.1046 17.7881 19 17.7881M5 9.78813L3 7.78813M5 9.78813C3.89543 9.78813 3 10.6836 3 11.7881V15.7881C3 16.8927 3.89543 17.7881 5 17.7881M7 13.7881H7.01M17 13.7881H17.01M19 17.7881H5M19 17.7881V19.7881M5 17.7881V19.7881" stroke="var(--stroke-0, #222228)" stroke-linecap="round" stroke-linejoin="round"/>
</g>
</svg>
