<svg preserveAspectRatio="none" width="100%" height="100%" overflow="visible" style="display: block;" viewBox="0 0 24 24" fill="none" xmlns="http://www.w3.org/2000/svg">
<g id="lucide/dumbbell">
<path id="Vector" d="M2.50001 21.2878L3.90001 19.8878M20.1 3.68785L21.5 2.28785M9.60001 14.1878L14.4 9.38785M17.596 12.5558C17.9712 12.931 18.48 13.1418 19.0105 13.1418C19.541 13.1418 20.0499 12.931 20.425 12.5558C20.8002 12.1807 21.0109 11.6719 21.0109 11.1413C21.0109 10.6108 20.8002 10.102 20.425 9.72685L18.657 7.95985C19.0322 8.33486 19.5409 8.54549 20.0714 8.5454C20.334 8.54535 20.5941 8.49357 20.8367 8.39302C21.0794 8.29246 21.2998 8.1451 21.4855 7.95935C21.6712 7.77359 21.8185 7.55308 21.9189 7.31041C22.0194 7.06773 22.0711 6.80765 22.0711 6.54499C22.071 6.28234 22.0192 6.02228 21.9187 5.77964C21.8181 5.537 21.6708 5.31654 21.485 5.13085L18.657 2.30285C18.282 1.9277 17.7733 1.71689 17.2429 1.7168C16.7124 1.7167 16.2037 1.92733 15.8285 2.30235C15.4534 2.67736 15.2425 3.18605 15.2425 3.71649C15.2424 4.24694 15.453 4.7557 15.828 5.13085L14.061 3.36285C13.8753 3.17709 13.6547 3.02974 13.412 2.92922C13.1693 2.82869 12.9092 2.77694 12.6465 2.77694C12.3838 2.77694 12.1237 2.82869 11.881 2.92922C11.6383 3.02974 11.4178 3.17709 11.232 3.36285C11.0463 3.5486 10.8989 3.76913 10.7984 4.01183C10.6978 4.25453 10.6461 4.51465 10.6461 4.77735C10.6461 5.04005 10.6978 5.30017 10.7984 5.54287C10.8989 5.78557 11.0463 6.00609 11.232 6.19185L17.596 12.5558ZM5.34301 21.2728C5.71802 21.648 6.22671 21.8588 6.75715 21.8589C7.0198 21.8589 7.27989 21.8073 7.52257 21.7068C7.76524 21.6063 7.98575 21.459 8.17151 21.2733C8.35726 21.0877 8.50462 20.8672 8.60518 20.6246C8.70573 20.3819 8.75751 20.1219 8.75756 19.8592C8.7576 19.5966 8.70592 19.3365 8.60545 19.0938C8.50498 18.8511 8.3577 18.6306 8.17201 18.4448L9.93901 20.2128C10.3142 20.588 10.823 20.7988 11.3535 20.7988C11.884 20.7988 12.3929 20.588 12.768 20.2128C13.1432 19.8377 13.3539 19.3289 13.3539 18.7983C13.3539 18.2678 13.1432 17.759 12.768 17.3838L6.40401 11.0198C6.21825 10.8341 5.99773 10.6867 5.75503 10.5862C5.51233 10.4857 5.2522 10.4339 4.98951 10.4339C4.72681 10.4339 4.46669 10.4857 4.22398 10.5862C3.98128 10.6867 3.76076 10.8341 3.57501 11.0198C3.38925 11.2056 3.2419 11.4261 3.14137 11.6688C3.04084 11.9115 2.9891 12.1717 2.9891 12.4343C2.9891 12.697 3.04084 12.9572 3.14137 13.1999C3.2419 13.4426 3.38925 13.6631 3.57501 13.8488L5.34301 15.6158C4.96786 15.2408 4.4591 15.0302 3.92865 15.0303C3.39821 15.0304 2.88952 15.2412 2.51451 15.6163C2.13949 15.9915 1.92886 16.5003 1.92896 17.0307C1.92905 17.5611 2.13986 18.0698 2.51501 18.4448L5.34301 21.2728Z" stroke="var(--stroke-0, #222228)" stroke-linecap="round" stroke-linejoin="round"/>
</g>
</svg>
