<svg preserveAspectRatio="none" width="100%" height="100%" overflow="visible" style="display: block;" viewBox="0 0 288.124 40" fill="none" xmlns="http://www.w3.org/2000/svg">
<g id="Group">
<path id="Vector" d="M264.223 24.7466C264.223 25.7042 264.018 25.9475 263.375 25.9475C262.731 25.9475 262.526 25.6931 262.526 24.7232V20.9638H260.925V24.9288C260.925 26.3963 261.446 27.1718 262.841 27.1718C263.618 27.1718 264.102 26.8685 264.309 26.3352V27.0751H265.836V20.9638H264.223V24.7477V24.7466Z" fill="var(--fill-0, #E1DFE1)"/>
<path id="Vector_2" d="M258.5 23.5456L257.748 23.4001C257.081 23.2668 256.923 23.109 256.923 22.7213C256.923 22.2725 257.105 22.1391 257.723 22.1391C258.341 22.1391 258.5 22.2969 258.535 22.9401H259.929C259.929 21.497 259.335 20.866 257.685 20.866C256.218 20.866 255.393 21.4726 255.393 22.7457C255.393 23.91 256.049 24.4433 256.97 24.6255L257.722 24.771C258.341 24.8921 258.499 24.9888 258.499 25.4142C258.499 25.8397 258.353 26.0331 257.685 26.0331C257.067 26.0331 256.837 25.8631 256.8 25.2209H255.369C255.429 26.3241 255.744 27.1729 257.636 27.1729C259.528 27.1729 260.025 26.433 260.025 25.3665C260.025 24.3 259.552 23.7534 258.497 23.5478L258.5 23.5456Z" fill="var(--fill-0, #E1DFE1)"/>
<path id="Vector_3" d="M245.925 20.866C243.984 20.866 243.293 21.5937 243.293 24.0189C243.293 26.4441 243.948 27.1718 245.925 27.1718C247.901 27.1718 248.557 26.3952 248.557 24.0189C248.557 21.6426 247.866 20.866 245.925 20.866ZM245.925 25.9464C245.148 25.9464 244.918 25.692 244.918 24.0189C244.918 22.4791 245.148 22.2358 245.925 22.2358C246.701 22.2358 246.919 22.478 246.919 24.0189C246.919 25.6798 246.714 25.9464 245.925 25.9464Z" fill="var(--fill-0, #E1DFE1)"/>
<path id="Vector_4" d="M252.545 20.866C251.768 20.866 251.284 21.1571 251.077 21.6781V20.9626H249.55V27.074H251.151V23.4601C251.151 22.5269 251.344 22.2591 252.012 22.2591C252.643 22.2591 252.848 22.5258 252.848 23.4601V27.074H254.461V23.109C254.461 21.6414 253.94 20.866 252.545 20.866Z" fill="var(--fill-0, #E1DFE1)"/>
<path id="Vector_5" d="M268.674 18.4408H267.073V27.0751H268.674V18.4408Z" fill="var(--fill-0, #E1DFE1)"/>
<path id="Vector_6" d="M271.766 19.5073H270.214V20.9626H269.461V22.2847H270.165V24.9521C270.165 26.5041 270.759 27.074 272.262 27.074H273.208V25.8486H272.565C271.971 25.8486 271.764 25.7031 271.764 25.0365V22.2836H273.232V20.9615H271.764V19.5062L271.766 19.5073Z" fill="var(--fill-0, #E1DFE1)"/>
<path id="Vector_7" d="M286.621 20.9626V21.7748C286.342 21.0593 285.833 20.8649 285.203 20.8649C283.651 20.8649 282.886 21.6292 282.886 23.9578C282.886 26.2863 283.528 27.0618 285.106 27.0618C285.7 27.0618 286.221 26.8796 286.525 26.3097V27.3773C286.525 28.2505 286.246 28.4683 285.566 28.4683C284.85 28.4683 284.693 28.2261 284.656 27.5462H283.129C283.225 28.9049 283.686 29.6925 285.59 29.6925C287.349 29.6925 288.124 28.9893 288.124 27.2795V20.9615H286.621V20.9626ZM285.517 25.8375C284.742 25.8375 284.523 25.5465 284.523 23.9578C284.523 22.4658 284.742 22.2358 285.517 22.2358C286.293 22.2358 286.524 22.4658 286.524 23.9578C286.524 25.5831 286.257 25.8375 285.517 25.8375Z" fill="var(--fill-0, #E1DFE1)"/>
<path id="Vector_8" d="M279.976 20.866C279.2 20.866 278.715 21.1571 278.508 21.6781V20.9626H276.98V27.074H278.581V23.4601C278.581 22.5269 278.776 22.2591 279.442 22.2591C280.073 22.2591 280.279 22.5258 280.279 23.4601V27.074H281.892V23.109C281.892 21.6414 281.37 20.866 279.976 20.866Z" fill="var(--fill-0, #E1DFE1)"/>
<path id="Vector_9" d="M275.743 20.9626H274.142V27.074H275.743V20.9626Z" fill="var(--fill-0, #E1DFE1)"/>
<path id="Vector_10" d="M275.743 18.4408H274.142V19.8961H275.743V18.4408Z" fill="var(--fill-0, #E1DFE1)"/>
<path id="Vector_11" d="M197.637 18.4408H194.46V27.0751H196.121V24.08H197.613C199.42 24.08 200.208 23.449 200.208 21.2182C200.208 19.1684 199.443 18.4408 197.637 18.4408ZM197.383 22.6724H196.122V19.9439H197.383C198.244 19.9439 198.498 20.1739 198.498 21.2782C198.498 22.4791 198.28 22.6724 197.383 22.6724Z" fill="var(--fill-0, #E1DFE1)"/>
<path id="Vector_12" d="M239.425 19.7984C240.528 19.7984 240.771 20.1983 240.831 21.6903H242.444C242.347 19.3384 241.946 18.2952 239.425 18.2952C236.903 18.2952 236.089 19.2051 236.089 22.7335C236.089 26.2619 236.744 27.2207 239.425 27.2207C241.692 27.2207 242.347 26.263 242.444 23.9345H240.831C240.771 25.4509 240.528 25.8864 239.425 25.8864C238.03 25.8864 237.824 25.5587 237.824 22.7091C237.824 20.2105 238.03 19.7984 239.425 19.7984Z" fill="var(--fill-0, #E1DFE1)"/>
<path id="Vector_13" d="M213.995 23.5456L213.243 23.4001C212.576 23.2668 212.418 23.109 212.418 22.7213C212.418 22.2725 212.6 22.1391 213.219 22.1391C213.838 22.1391 213.995 22.2969 214.031 22.9401H215.426C215.426 21.497 214.831 20.866 213.183 20.866C211.715 20.866 210.891 21.4726 210.891 22.7457C210.891 23.91 211.545 24.4433 212.467 24.6255L213.219 24.771C213.838 24.8921 213.995 24.9888 213.995 25.4142C213.995 25.8397 213.849 26.0331 213.183 26.0331C212.564 26.0331 212.334 25.8631 212.297 25.2209H210.866C210.927 26.3241 211.243 27.1729 213.134 27.1729C215.025 27.1729 215.522 26.433 215.522 25.3665C215.522 24.3 215.049 23.7534 213.995 23.5478V23.5456Z" fill="var(--fill-0, #E1DFE1)"/>
<path id="Vector_14" d="M218.846 22.2358C219.501 22.2358 219.683 22.478 219.744 23.4245H221.224C221.15 21.7025 220.642 20.866 218.858 20.866C216.967 20.866 216.275 21.6781 216.275 24.0189C216.275 26.3597 216.894 27.1718 218.858 27.1718C220.472 27.1718 221.15 26.4197 221.224 24.6732H219.744C219.695 25.6553 219.514 25.9464 218.846 25.9464C218.082 25.9464 217.912 25.7042 217.912 24.0789C217.912 22.4536 218.082 22.2358 218.846 22.2358Z" fill="var(--fill-0, #E1DFE1)"/>
<path id="Vector_15" d="M230.645 20.866C228.777 20.866 228.074 21.7636 228.074 24.0433C228.074 26.323 228.753 27.1718 230.706 27.1718C232.282 27.1718 232.949 26.4074 233.047 25.1954H231.616C231.555 25.8131 231.3 25.9831 230.695 25.9831C229.943 25.9831 229.7 25.7653 229.676 24.3455H233.095V24.03C233.095 21.8836 232.587 20.8649 230.646 20.8649L230.645 20.866ZM229.699 23.3034C229.784 22.3458 230.087 22.188 230.669 22.188C231.251 22.188 231.518 22.3936 231.579 23.3034H229.699Z" fill="var(--fill-0, #E1DFE1)"/>
<path id="Vector_16" d="M207.047 23.0724V27.074H208.648V23.0113C208.648 22.4902 208.854 22.2836 209.375 22.2836H210.176V20.9615H209.158C207.653 20.9615 207.048 21.5803 207.048 23.0712L207.047 23.0724Z" fill="var(--fill-0, #E1DFE1)"/>
<path id="Vector_17" d="M225.164 20.866C224.486 20.866 224.024 21.0849 223.769 21.5326V18.4408H222.168V27.0751H223.769V23.4367C223.769 22.4913 223.988 22.2602 224.63 22.2602C225.272 22.2602 225.466 22.5269 225.466 23.4612V27.0751H227.08V23.1101C227.08 21.6425 226.559 20.8671 225.164 20.8671V20.866Z" fill="var(--fill-0, #E1DFE1)"/>
<path id="Vector_18" d="M203.457 20.866C201.516 20.866 200.825 21.5937 200.825 24.0189C200.825 26.4441 201.48 27.1718 203.457 27.1718C205.435 27.1718 206.089 26.3952 206.089 24.0189C206.089 21.6426 205.398 20.866 203.457 20.866ZM203.457 25.9464C202.681 25.9464 202.451 25.692 202.451 24.0189C202.451 22.4791 202.681 22.2358 203.457 22.2358C204.234 22.2358 204.452 22.478 204.452 24.0189C204.452 25.6798 204.245 25.9464 203.457 25.9464Z" fill="var(--fill-0, #E1DFE1)"/>
<path id="Vector_19" d="M195.26 14.1125H196.208C196.895 14.108 197.403 13.9492 197.731 13.6381C198.06 13.327 198.225 12.8827 198.225 12.3038C198.225 11.725 198.06 11.274 197.731 10.9629C197.404 10.6519 196.895 10.4952 196.208 10.4952H194.459V15.6101H195.258V14.1125H195.26ZM195.26 11.1185H196.149C196.584 11.1185 196.902 11.2196 197.102 11.4217C197.302 11.6239 197.402 11.9183 197.402 12.3038C197.402 13.0948 196.984 13.4904 196.149 13.4904H195.26V11.1185Z" fill="var(--fill-0, #E1DFE1)"/>
<path id="Vector_20" d="M202.213 13.7348C202.213 13.126 202.059 12.6516 201.75 12.3072C201.44 11.9639 201 11.7917 200.427 11.7917C199.853 11.7917 199.418 11.9639 199.103 12.3072C198.79 12.6505 198.632 13.126 198.632 13.7348C198.632 14.3436 198.788 14.8179 199.099 15.1612C199.411 15.5045 199.853 15.6767 200.426 15.6767C200.998 15.6767 201.439 15.5056 201.749 15.1657C202.058 14.8246 202.212 14.348 202.212 13.7348H202.213ZM201.198 14.7468C201.024 14.9868 200.77 15.1068 200.434 15.1068C200.099 15.1068 199.84 14.9868 199.659 14.7468C199.479 14.5069 199.389 14.1703 199.389 13.7359C199.389 13.3015 199.479 12.9704 199.659 12.7316C199.839 12.4916 200.098 12.3716 200.434 12.3716C200.771 12.3716 201.024 12.4905 201.198 12.7271C201.37 12.9649 201.456 13.3004 201.456 13.7359C201.456 14.1714 201.37 14.508 201.198 14.7468Z" fill="var(--fill-0, #E1DFE1)"/>
<path id="Vector_21" d="M208.136 11.9706V11.8672H207.423L206.66 14.4613L206.63 14.7502H206.527L206.505 14.4613L205.748 11.8672H204.94L204.185 14.4613L204.155 14.7502H204.058L204.029 14.4613L203.257 11.8672H202.524V11.9783L203.622 15.6101H204.488L205.245 13.1271L205.281 12.8449H205.378L205.415 13.1271L206.164 15.6101H207.053L208.136 11.9706Z" fill="var(--fill-0, #E1DFE1)"/>
<path id="Vector_22" d="M211.871 14.4236H211.144C211.095 14.6413 210.994 14.8102 210.841 14.9313C210.687 15.0524 210.485 15.1123 210.233 15.1123C209.581 15.1123 209.24 14.688 209.21 13.837H211.901V13.6814C211.901 13.0793 211.757 12.6149 211.471 12.2883C211.184 11.9617 210.769 11.7995 210.225 11.7995C209.682 11.7995 209.223 11.9728 208.91 12.3183C208.597 12.6638 208.439 13.1415 208.439 13.7492C208.439 14.3569 208.59 14.8302 208.891 15.1679C209.192 15.5067 209.628 15.6756 210.196 15.6756C210.675 15.6756 211.06 15.5634 211.348 15.3379C211.637 15.1135 211.812 14.8079 211.871 14.4224V14.4236ZM209.532 12.5938C209.693 12.4161 209.914 12.3272 210.195 12.3272C210.476 12.3272 210.705 12.4161 210.866 12.5938C211.027 12.7716 211.122 13.0337 211.152 13.3793H209.232C209.271 13.0337 209.371 12.7716 209.532 12.5938Z" fill="var(--fill-0, #E1DFE1)"/>
<path id="Vector_23" d="M213.457 13.6903C213.457 13.3148 213.547 13.0237 213.727 12.8149C213.907 12.6071 214.158 12.5038 214.479 12.5038C214.651 12.5038 214.822 12.5338 214.99 12.5927V11.8806C214.851 11.8217 214.679 11.7917 214.471 11.7917C214.175 11.7917 213.929 11.865 213.735 12.0106C213.539 12.1561 213.403 12.3483 213.324 12.5849H213.257L213.309 12.1694V11.8661H212.702V15.6089H213.457V13.6892V13.6903Z" fill="var(--fill-0, #E1DFE1)"/>
<path id="Vector_24" d="M218.323 15.3401C218.612 15.1157 218.786 14.8102 218.845 14.4247H218.119C218.07 14.6424 217.969 14.8113 217.815 14.9324C217.662 15.0535 217.46 15.1135 217.208 15.1135C216.555 15.1135 216.214 14.6891 216.184 13.8381H218.875V13.6825C218.875 13.0804 218.732 12.616 218.445 12.2894C218.159 11.9628 217.743 11.8006 217.2 11.8006C216.657 11.8006 216.198 11.9739 215.884 12.3194C215.571 12.6649 215.413 13.1426 215.413 13.7503C215.413 14.358 215.565 14.8313 215.866 15.169C216.167 15.5078 216.602 15.6767 217.17 15.6767C217.649 15.6767 218.033 15.5645 218.322 15.339L218.323 15.3401ZM216.508 12.5938C216.668 12.4161 216.889 12.3272 217.171 12.3272C217.453 12.3272 217.681 12.4161 217.842 12.5938C218.002 12.7716 218.097 13.0337 218.127 13.3793H216.208C216.247 13.0337 216.348 12.7716 216.508 12.5938Z" fill="var(--fill-0, #E1DFE1)"/>
<path id="Vector_25" d="M222.434 14.9202H222.507L222.464 15.2612V15.6089H223.063V10.2719H222.308V12.0361L222.464 12.2883L222.507 12.5549H222.434C222.325 12.3272 222.159 12.1428 221.937 12.0028C221.715 11.8617 221.443 11.7917 221.122 11.7917C220.637 11.7917 220.258 11.9661 219.984 12.315C219.71 12.6638 219.572 13.1393 219.572 13.7414C219.572 14.3436 219.707 14.8113 219.979 15.1568C220.252 15.5023 220.632 15.6756 221.12 15.6756C221.441 15.6756 221.715 15.6045 221.939 15.4645C222.164 15.3245 222.328 15.1423 222.432 14.9202H222.434ZM221.336 15.099C221.015 15.099 220.769 14.9779 220.598 14.7357C220.427 14.4935 220.343 14.1603 220.343 13.7348C220.343 13.3093 220.427 12.9771 220.595 12.7371C220.763 12.4972 221.01 12.3783 221.336 12.3783C221.661 12.3783 221.889 12.4938 222.063 12.726C222.235 12.9582 222.322 13.2948 222.322 13.7348C222.322 14.1747 222.236 14.5058 222.063 14.7424C221.889 14.979 221.647 15.0979 221.336 15.0979V15.099Z" fill="var(--fill-0, #E1DFE1)"/>
<path id="Vector_26" d="M228.853 15.1579C229.125 14.8124 229.26 14.3402 229.26 13.7425C229.26 13.1448 229.124 12.6705 228.849 12.3194C228.575 11.9683 228.196 11.7928 227.712 11.7928C227.391 11.7928 227.12 11.8639 226.896 12.005C226.674 12.145 226.506 12.3294 226.393 12.5571H226.326L226.371 12.2905L226.526 12.0383V10.2741H225.763V15.6112H226.371V15.2634L226.326 14.9224H226.401C226.504 15.1446 226.669 15.3268 226.894 15.4667C227.12 15.6078 227.392 15.6778 227.713 15.6778C228.202 15.6778 228.583 15.5045 228.855 15.159L228.853 15.1579ZM228.229 14.7246C228.056 14.969 227.812 15.0946 227.495 15.099C227.184 15.099 226.943 14.9768 226.773 14.7324C226.603 14.488 226.515 14.1558 226.51 13.7359C226.51 13.3204 226.596 12.9904 226.769 12.746C226.942 12.5016 227.184 12.3794 227.495 12.3794C227.806 12.3794 228.061 12.5005 228.229 12.7427C228.397 12.9849 228.484 13.3159 228.489 13.7359C228.489 14.1503 228.403 14.4802 228.229 14.7246Z" fill="var(--fill-0, #E1DFE1)"/>
<path id="Vector_27" d="M231.498 14.5724L231.461 14.8468H231.357L231.32 14.5724L230.327 11.8672H229.564V11.9783L230.919 15.5656H231.252V15.6467L231.111 15.7134L230.985 16.0167C230.846 16.2489 230.634 16.3644 230.348 16.3644C230.14 16.3644 229.935 16.3255 229.733 16.2466V16.861C229.929 16.9354 230.152 16.9721 230.399 16.9721C230.73 16.9721 230.999 16.8977 231.207 16.7499C231.415 16.601 231.58 16.3699 231.703 16.0533L233.231 11.9617V11.865H232.482L231.496 14.5702L231.498 14.5724Z" fill="var(--fill-0, #E1DFE1)"/>
<path id="Vector_28" d="M180.341 0H180.074V40H180.341V0Z" fill="var(--fill-0, #E1DFE1)"/>
<path id="Vector_29" d="M97.4498 38.8191L97.4098 39.1323H97.3598L97.3176 38.8124L96.0045 34.7796L95.9956 34.753H95.109V34.9096L96.7799 39.8989L96.7888 39.9256H97.9664L99.6373 34.9218L99.6384 34.753H98.7674L97.4498 38.8191Z" fill="var(--fill-0, #E1DFE1)"/>
<path id="Vector_30" d="M102.921 34.753H101.744L100.036 39.7567L100.034 39.9256H100.854L101.2 38.899H103.449L103.796 39.9256H104.63V39.7689L102.929 34.7796L102.92 34.7541L102.921 34.753ZM101.434 38.1947L102.252 35.765L102.299 35.4651H102.345L102.399 35.7717L103.217 38.1947H101.434Z" fill="var(--fill-0, #E1DFE1)"/>
<path id="Vector_31" d="M106.957 34.753H106.082V39.9256H109.327V39.1323H106.957V34.753Z" fill="var(--fill-0, #E1DFE1)"/>
<path id="Vector_32" d="M111.58 37.6292H113.773V36.9393H111.58V35.4729H114.142V34.753H110.757V39.9256H114.18V39.2057H111.58V37.6292Z" fill="var(--fill-0, #E1DFE1)"/>
<path id="Vector_33" d="M121.28 34.753H119.388V39.9256H121.28C122.066 39.9256 122.655 39.7034 123.03 39.2657C123.404 38.8302 123.593 38.1814 123.593 37.3393C123.593 36.4972 123.403 35.8484 123.03 35.4129C122.654 34.9751 122.066 34.753 121.28 34.753ZM121.243 39.199H120.262V35.4806H121.243C121.735 35.4806 122.101 35.6384 122.331 35.9483C122.563 36.2627 122.681 36.7305 122.681 37.3393C122.681 38.5902 122.21 39.199 121.242 39.199H121.243Z" fill="var(--fill-0, #E1DFE1)"/>
<path id="Vector_34" d="M127.416 34.6796C126.684 34.6796 126.115 34.9152 125.725 35.3806C125.337 35.8439 125.139 36.5027 125.139 37.3404C125.139 38.178 125.336 38.8313 125.725 39.2957C126.115 39.7634 126.684 40 127.416 40C128.148 40 128.715 39.7645 129.103 39.299C129.489 38.8357 129.684 38.1769 129.684 37.3393C129.684 36.5016 129.489 35.8428 129.103 35.3795C128.715 34.914 128.148 34.6785 127.416 34.6785V34.6796ZM128.433 38.7724C128.206 39.099 127.863 39.2657 127.416 39.2657C126.968 39.2657 126.631 39.099 126.398 38.7724C126.162 38.4413 126.044 37.9592 126.044 37.3393C126.044 36.7193 126.161 36.2439 126.395 35.9106C126.625 35.5806 126.968 35.414 127.416 35.414C127.863 35.414 128.206 35.5795 128.433 35.9072C128.664 36.2383 128.781 36.7205 128.781 37.3404C128.781 37.9603 128.664 38.4424 128.433 38.7735V38.7724Z" fill="var(--fill-0, #E1DFE1)"/>
<path id="Vector_35" d="M137.451 36.9993L136.477 36.7704C136.004 36.6516 135.774 36.4194 135.774 36.0617C135.774 35.8461 135.861 35.675 136.04 35.5384C136.219 35.4017 136.468 35.3318 136.778 35.3318C137.063 35.3318 137.304 35.4017 137.493 35.5384C137.681 35.675 137.8 35.8895 137.848 36.1783L137.853 36.2105H138.734L138.73 36.1683C138.68 35.6917 138.483 35.3195 138.146 35.064C137.811 34.8085 137.355 34.6796 136.793 34.6796C136.201 34.6796 135.729 34.8118 135.389 35.0718C135.046 35.334 134.871 35.6895 134.871 36.1294C134.871 36.4627 134.973 36.7482 135.176 36.9782C135.377 37.2071 135.683 37.3759 136.09 37.4815L137.057 37.7025C137.359 37.7836 137.582 37.8925 137.719 38.0247C137.853 38.1547 137.921 38.3236 137.921 38.5291C137.921 38.7791 137.825 38.9713 137.63 39.1146C137.433 39.259 137.169 39.3323 136.844 39.3323C136.5 39.3323 136.222 39.2579 136.018 39.1101C135.816 38.9646 135.689 38.7446 135.641 38.4558L135.636 38.4235H134.755L134.759 38.4669C134.815 38.9579 135.018 39.339 135.366 39.5978C135.71 39.8556 136.198 39.9856 136.814 39.9856C137.226 39.9856 137.588 39.9222 137.889 39.7978C138.192 39.6723 138.429 39.4923 138.592 39.2634C138.756 39.0335 138.838 38.7591 138.838 38.4469C138.838 38.0892 138.723 37.7848 138.495 37.5415C138.27 37.3004 137.919 37.1182 137.45 36.9982L137.451 36.9993Z" fill="var(--fill-0, #E1DFE1)"/>
<path id="Vector_36" d="M141.276 37.6292H143.47V36.9393H141.276V35.4729H143.839V34.753H140.454V39.9256H143.876V39.2057H141.276V37.6292Z" fill="var(--fill-0, #E1DFE1)"/>
<path id="Vector_37" d="M149.303 39.5845C149.288 39.5145 149.282 39.4223 149.282 39.3112V38.6535C149.282 38.2469 149.189 37.937 149.006 37.7303C148.828 37.5303 148.554 37.407 148.188 37.3637V37.3304L148.433 37.3659L148.441 37.3637C148.718 37.2959 148.942 37.1493 149.105 36.9304C149.272 36.7049 149.356 36.4383 149.356 36.1361C149.356 35.7028 149.207 35.3595 148.914 35.1173C148.623 34.8763 148.167 34.7541 147.561 34.7541H145.499V39.9267H146.373V37.8447H147.413C147.774 37.8403 148.031 37.9092 148.175 38.0514C148.319 38.1936 148.393 38.4169 148.393 38.7146V39.3723C148.393 39.6301 148.434 39.8067 148.519 39.9133L148.532 39.9278H149.394V39.7634L149.384 39.7523C149.345 39.7089 149.318 39.6534 149.305 39.5856L149.303 39.5845ZM147.367 37.1537H146.372V35.4362H147.367C147.754 35.4362 148.035 35.5106 148.202 35.6584C148.367 35.805 148.451 36.0206 148.451 36.2983C148.451 36.556 148.363 36.7649 148.191 36.9193C148.016 37.0749 147.74 37.1526 147.367 37.1526V37.1537Z" fill="var(--fill-0, #E1DFE1)"/>
<path id="Vector_38" d="M151.896 37.6292H154.089V36.9393H151.896V35.4729H154.457V34.753H151.072V39.9256H154.495V39.2057H151.896V37.6292Z" fill="var(--fill-0, #E1DFE1)"/>
<path id="Vector_39" d="M159.44 38.3858L159.479 38.7046H159.423L159.305 38.3902L157.059 34.7718L157.047 34.753H156.116V39.9256H156.917L156.903 36.295L156.869 35.975H156.926L157.045 36.2894L159.282 39.9078L159.295 39.9256H160.218V34.753H159.425L159.44 38.3858Z" fill="var(--fill-0, #E1DFE1)"/>
<path id="Vector_40" d="M164.204 34.6796C163.472 34.6796 162.903 34.9152 162.513 35.3806C162.125 35.8439 161.928 36.5027 161.928 37.3404C161.928 38.178 162.124 38.8313 162.513 39.2957C162.903 39.7634 163.472 40 164.204 40C164.936 40 165.504 39.7645 165.891 39.299C166.277 38.8368 166.472 38.1769 166.472 37.3393C166.472 36.5016 166.277 35.8428 165.891 35.3795C165.504 34.914 164.936 34.6785 164.204 34.6785V34.6796ZM165.222 38.7724C164.994 39.099 164.652 39.2657 164.205 39.2657C163.758 39.2657 163.42 39.1001 163.187 38.7724C162.952 38.4413 162.833 37.9592 162.833 37.3404C162.833 36.7216 162.951 36.245 163.184 35.9117C163.414 35.5817 163.757 35.4151 164.205 35.4151C164.653 35.4151 164.995 35.5806 165.222 35.9083C165.453 36.2394 165.569 36.7216 165.569 37.3415C165.569 37.9614 165.453 38.4435 165.222 38.7746V38.7724Z" fill="var(--fill-0, #E1DFE1)"/>
<path id="Vector_41" d="M69.1671 11.6328H55.3868C55.1412 11.6328 54.9435 11.8317 54.9435 12.0761V26.0619C54.9435 27.3284 55.97 28.3561 57.2365 28.3561H69.1671C69.4126 28.3561 69.6103 28.1572 69.6103 27.9117V26.363C69.6103 26.1175 69.4115 25.9197 69.1671 25.9197H57.9042V20.9738H67.9717C68.2172 20.9738 68.415 20.7749 68.415 20.5305V19.0296C68.415 18.7841 68.2161 18.5863 67.9717 18.5863H57.9042V14.0714H69.1671C69.4126 14.0714 69.6103 13.8725 69.6103 13.6281V12.0783C69.6103 11.8328 69.4115 11.6351 69.1671 11.6351V11.6328Z" fill="var(--fill-0, #E1DFE1)"/>
<path id="Vector_42" d="M12.5994 26.4186L2.96292 25.9186V12.0761C2.96292 11.8306 2.76406 11.6328 2.51965 11.6328H0.443272C0.19775 11.6328 0 11.8317 0 12.0761V26.0619C0 27.3284 1.02652 28.3561 2.29413 28.3561H12.5771C12.8227 28.3561 13.0204 28.1572 13.0204 27.9117V26.8618C13.0204 26.6263 12.836 26.4308 12.5994 26.4186Z" fill="var(--fill-0, #E1DFE1)"/>
<path id="Vector_43" d="M47.1079 19.3251V18.9663C48.8277 18.8952 50.7152 18.1541 50.7152 15.7411C50.7152 12.6594 48.7321 11.6317 44.2405 11.6317H35.0562C34.8107 11.6317 34.613 11.8306 34.613 12.075V18.4174L21.367 18.8441V20.7105L34.613 20.9238V26.0597C34.613 27.3262 35.6395 28.3538 36.9071 28.3538H44.6471C48.8999 28.3538 51.2407 27.0163 51.2407 23.4323C51.2407 20.4227 49.1865 19.4429 47.1079 19.3229V19.3251ZM37.5759 13.7103H44.6238C47.2034 13.7103 47.6101 14.5224 47.6101 16.1466C47.6101 17.7709 47.1323 18.6074 44.6238 18.6074H37.5759V18.323V13.7103ZM44.8138 26.2764H37.5748V20.9726V20.686H44.8138C47.4901 20.686 48.1344 21.4981 48.1344 23.4567C48.1344 25.4154 47.5367 26.2752 44.8138 26.2752V26.2764Z" fill="var(--fill-0, #E1DFE1)"/>
<path id="Vector_44" d="M90.6185 11.6328H88.6155C88.37 11.6328 88.1711 11.8317 88.1711 12.0761V24.1744C88.1711 25.5365 87.8845 26.1808 86.738 26.1808C85.6637 26.1808 85.4004 25.5365 84.8749 24.1266L82.103 15.1446C81.2909 12.756 80.5744 11.394 77.5881 11.394C74.0764 11.394 73.312 13.3048 73.312 16.4822V27.9117C73.312 28.1572 73.5109 28.355 73.7553 28.355H75.7584C76.0039 28.355 76.2016 28.1561 76.2016 27.9117V15.7889C76.2016 14.4513 76.5116 13.8059 77.6348 13.8059C78.6857 13.8059 78.9724 14.4269 79.4745 15.86L82.2452 24.8421C83.0818 27.2318 83.7984 28.5927 86.7846 28.5927C90.3208 28.5927 91.0607 26.6807 91.0607 23.5045V12.075C91.0607 11.8295 90.8618 11.6317 90.6174 11.6317L90.6185 11.6328Z" fill="var(--fill-0, #E1DFE1)"/>
<path id="Vector_45" d="M105.299 18.7752L100.497 18.1297C98.9207 17.8664 97.8453 17.6042 97.8453 15.98C97.8453 14.5469 98.2752 13.8303 101.955 13.8303H108.726C108.97 13.8303 109.169 13.6314 109.169 13.387V12.4227C109.169 12.2205 109.034 12.045 108.838 11.9928C107.444 11.6195 105.51 11.394 103.412 11.394C97.6309 11.394 94.7402 12.4449 94.7402 16.2433C94.7402 18.4897 95.9111 20.0894 98.8729 20.5916L104.009 21.2848C106.04 21.5948 106.971 21.9303 106.971 23.6978C106.971 25.3465 106.469 26.1819 102.622 26.1819H95.2546C95.009 26.1819 94.8113 26.3808 94.8113 26.6252V27.5173C94.8113 27.7162 94.9435 27.8939 95.1357 27.945C96.7988 28.3816 98.9929 28.5716 101.166 28.5716C107.091 28.5716 110.077 27.544 110.077 23.1723C110.077 20.8316 109.145 19.3495 105.299 18.7763V18.7752Z" fill="var(--fill-0, #E1DFE1)"/>
<path id="Vector_46" d="M126.822 15.2157C125.867 12.7793 124.792 11.3929 121.494 11.3929C118.197 11.3929 117.075 12.7549 116.143 15.2157L113.372 22.9557C112.719 24.741 112.363 26.4652 112.45 27.9328C112.463 28.1694 112.658 28.355 112.894 28.355H114.344C114.534 28.355 114.703 28.2339 114.764 28.055L116.311 23.529H126.702L128.327 28.355H130.089C130.327 28.355 130.522 28.1672 130.533 27.9283C130.605 26.4497 130.266 24.7621 129.592 22.9557L126.821 15.2157H126.822ZM117.099 21.1404L118.819 16.0989C119.392 14.4747 119.847 13.8059 121.494 13.8059C123.142 13.8059 123.596 14.4747 124.171 16.0744L125.89 21.1393H117.098L117.099 21.1404Z" fill="var(--fill-0, #E1DFE1)"/>
<path id="Vector_47" d="M144.569 21.4748C147.216 21.4748 149.419 19.3529 149.421 16.7055C149.425 13.2348 147.729 11.6317 143.186 11.6317H134.049C133.805 11.6317 133.606 11.8306 133.606 12.075V27.9106C133.606 28.1561 133.805 28.3538 134.049 28.3538H136.124C136.369 28.3538 136.568 28.155 136.568 27.9106V22.3336H140.032C141.656 22.3336 142.158 22.5724 142.946 23.6956L145.968 28.1594C146.05 28.2816 146.187 28.355 146.335 28.355H148.965C149.326 28.355 149.536 27.9472 149.326 27.6539L145.718 22.598C145.264 21.9292 144.81 21.8336 143.926 21.8092V21.4748H144.568H144.569ZM143.09 20.0417H136.568V13.9981H143.066C145.455 13.9981 146.315 14.7868 146.315 17.0321C146.315 19.2773 145.455 20.0428 143.09 20.0428V20.0417Z" fill="var(--fill-0, #E1DFE1)"/>
<path id="Vector_48" d="M166.2 11.6317H151.702C151.457 11.6317 151.259 11.8306 151.259 12.0761V13.6259C151.259 13.8703 151.458 14.0692 151.702 14.0692H157.47V27.9117C157.47 28.1572 157.669 28.355 157.914 28.355H159.989C160.234 28.355 160.432 28.1561 160.432 27.9117V14.0692L166.237 13.5814C166.467 13.5626 166.644 13.3704 166.644 13.1393V12.0761C166.644 11.8306 166.445 11.6317 166.2 11.6317Z" fill="var(--fill-0, #E1DFE1)"/>
<path id="Vector_49" d="M30.0858 25.9186H18.8229V14.0692H30.0858C30.3313 14.0692 30.5291 13.8703 30.5291 13.6259V12.0761C30.5291 11.8306 30.3302 11.6328 30.0858 11.6328H16.3055C16.06 11.6328 15.8622 11.8317 15.8622 12.0761V26.0853C15.8622 27.3384 16.8788 28.355 18.1319 28.355H30.0869C30.3325 28.355 30.5302 28.1561 30.5302 27.9117V26.363C30.5302 26.1175 30.3313 25.9197 30.0869 25.9197L30.0858 25.9186Z" fill="var(--fill-0, #E1DFE1)"/>
</g>
</svg>
