<svg width="155" height="16" viewBox="0 0 155.009 16" fill="none" xmlns="http://www.w3.org/2000/svg">
<g>
<path d="M64.3377 0.222432H51.5192C51.2911 0.222432 51.1065 0.407057 51.1065 0.635161V13.6446C51.1065 14.8229 52.0618 15.7782 53.2401 15.7782H64.3384C64.5665 15.7782 64.7511 15.5936 64.7511 15.3655V13.9244C64.7511 13.6963 64.5665 13.5117 64.3384 13.5117H53.8626V8.91178H63.2275C63.4556 8.91178 63.6402 8.72716 63.6402 8.49906V7.10271C63.6402 6.87461 63.4556 6.68998 63.2275 6.68998H53.8626V2.48897H64.3384C64.5665 2.48897 64.7511 2.30435 64.7511 2.07624V0.635161C64.7511 0.407057 64.5665 0.222432 64.3384 0.222432H64.3377Z" fill="white"/>
<path d="M11.7196 13.9767L2.75551 13.5117V0.635161C2.75551 0.407057 2.57089 0.222432 2.34278 0.222432H0.412728C0.184625 0.222432 0 0.407057 0 0.635161V13.6446C0 14.8229 0.955261 15.7782 2.13359 15.7782H11.6982C11.9263 15.7782 12.1109 15.5936 12.1109 15.3655V14.3894C12.1109 14.1701 11.9389 13.9887 11.7196 13.9773V13.9767Z" fill="white"/>
<path d="M43.8192 7.37807V7.04474C45.419 6.97795 47.1745 6.28923 47.1745 4.04474C47.1745 1.17832 45.3302 0.222432 41.1525 0.222432H32.61C32.3819 0.222432 32.1972 0.407057 32.1972 0.635161V6.53497L19.8765 6.93195V8.66856L32.1972 8.86705V13.6446C32.1972 14.8229 33.1525 15.7782 34.3308 15.7782H41.5306C45.4858 15.7782 47.6641 14.5337 47.6641 11.2004C47.6641 8.40076 45.753 7.48897 43.8198 7.37807H43.8192ZM34.9521 2.15564H41.5079C43.908 2.15564 44.2854 2.91115 44.2854 4.42218C44.2854 5.93321 43.8406 6.71141 41.5079 6.71141H34.9521V6.44613V2.15564ZM41.6856 13.8444H34.9521V8.91115V8.64461H41.6856C44.1745 8.64461 44.7744 9.40013 44.7744 11.2224C44.7744 13.0447 44.2187 13.8444 41.6856 13.8444Z" fill="white"/>
<path d="M84.2924 0.222432H82.4291C82.201 0.222432 82.0164 0.407057 82.0164 0.635161V11.8891C82.0164 13.1556 81.7498 13.7555 80.6831 13.7555C79.6831 13.7555 79.4386 13.1556 78.9502 11.8444L76.3724 3.48897C75.6163 1.26654 74.9496 0 72.1714 0C68.9049 0 68.1935 1.7782 68.1935 4.73346V15.3655C68.1935 15.5936 68.3781 15.7782 68.6062 15.7782H70.4694C70.6975 15.7782 70.8822 15.5936 70.8822 15.3655V4.08885C70.8822 2.84436 71.1714 2.24449 72.2155 2.24449C73.1928 2.24449 73.46 2.82231 73.9269 4.15564L76.5041 12.511C77.2817 14.7335 77.9483 16 80.7265 16C84.0151 16 84.7045 14.2224 84.7045 11.2665V0.635161C84.7045 0.407057 84.5199 0.222432 84.2917 0.222432H84.2924Z" fill="white"/>
<path d="M97.9477 6.86704L93.4814 6.26717C92.0145 6.02268 91.0145 5.7782 91.0145 4.26717C91.0145 2.93384 91.4146 2.26717 94.8368 2.26717H101.135C101.363 2.26717 101.548 2.08255 101.548 1.85444V0.957152C101.548 0.769376 101.422 0.606175 101.239 0.557656C99.9427 0.21046 98.143 0.00126024 96.1916 0.00126024C90.8135 0.00126024 88.1248 0.979206 88.1248 4.51229C88.1248 6.60113 89.2136 8.09011 91.9691 8.55639L96.7467 9.20101C98.6358 9.4896 99.5022 9.80088 99.5022 11.4455C99.5022 12.9792 99.0353 13.7568 95.4575 13.7568H88.6037C88.3755 13.7568 88.1909 13.9414 88.1909 14.1695V14.9987C88.1909 15.184 88.3138 15.3491 88.4928 15.3963C90.0403 15.8028 92.0807 15.9786 94.1021 15.9786C99.6131 15.9786 102.391 15.0233 102.391 10.9565C102.391 8.77883 101.524 7.40076 97.9464 6.86767L97.9477 6.86704Z" fill="white"/>
<path d="M117.968 3.55577C117.079 1.28922 116.08 0 113.013 0C109.946 0 108.902 1.26654 108.035 3.55577L105.457 10.7555C104.85 12.4159 104.519 14.0202 104.6 15.385C104.613 15.6049 104.793 15.7776 105.014 15.7776H106.362C106.539 15.7776 106.696 15.6654 106.753 15.4984L108.191 11.2886H117.858L119.369 15.7776H121.008C121.229 15.7776 121.411 15.6024 121.422 15.3806C121.488 14.0057 121.174 12.436 120.546 10.7555L117.969 3.55577H117.968ZM108.924 9.06679L110.524 4.37807C111.058 2.86705 111.48 2.24512 113.013 2.24512C114.546 2.24512 114.968 2.86704 115.502 4.35602L117.102 9.06742H108.924V9.06679Z" fill="white"/>
<path d="M134.475 9.37807C136.938 9.37807 138.987 7.40454 138.989 4.94203C138.991 1.71393 137.415 0.222432 133.188 0.222432H124.69C124.462 0.222432 124.277 0.407057 124.277 0.635161V15.3648C124.277 15.5929 124.462 15.7776 124.69 15.7776H126.62C126.848 15.7776 127.033 15.5929 127.033 15.3648V10.1777H130.255C131.766 10.1777 132.233 10.4001 132.966 11.4442L135.776 15.5961C135.853 15.7095 135.981 15.7776 136.118 15.7776H138.564C138.9 15.7776 139.095 15.3982 138.9 15.1254L135.543 10.4222C135.121 9.80025 134.699 9.7114 133.877 9.68935V9.37807H134.474H134.475ZM133.1 8.04474H127.033V2.42218H133.077C135.3 2.42218 136.1 3.15564 136.1 5.24386C136.1 7.33207 135.3 8.04411 133.1 8.04411L133.1 8.04474Z" fill="white"/>
<path d="M154.597 0.222432H141.112C140.883 0.222432 140.699 0.407057 140.699 0.635161V2.07624C140.699 2.30435 140.883 2.48897 141.112 2.48897H146.476V15.3648C146.476 15.5929 146.661 15.7776 146.889 15.7776H148.819C149.047 15.7776 149.232 15.5929 149.232 15.3648V2.48897L154.631 2.03529C154.845 2.01764 155.009 1.83869 155.009 1.62382V0.635161C155.009 0.407057 154.825 0.222432 154.597 0.222432Z" fill="white"/>
<path d="M27.9855 13.511H17.5098V2.48897H27.9855C28.2136 2.48897 28.3982 2.30435 28.3982 2.07624V0.635161C28.3982 0.407057 28.2136 0.222432 27.9855 0.222432H15.167C14.9389 0.222432 14.7543 0.407057 14.7543 0.635161V13.6667C14.7543 14.8324 15.6994 15.7776 16.8652 15.7776H27.9855C28.2136 15.7776 28.3982 15.5929 28.3982 15.3648V13.9238C28.3982 13.6957 28.2136 13.511 27.9855 13.511Z" fill="white"/>
</g>
</svg>
