<svg preserveAspectRatio="none" width="100%" height="100%" overflow="visible" style="display: block;" viewBox="0 0 246.668 138.087" fill="none" xmlns="http://www.w3.org/2000/svg">
<path d="M212.536 63.5197V60.5608C226.738 59.9679 242.321 53.8542 242.321 33.9301C242.321 8.48533 225.949 0 188.864 0H113.033C111.009 0 109.37 1.63889 109.37 3.66374V56.0356L0 59.5595V74.9752L109.37 76.7372V119.147C109.37 129.607 117.849 138.087 128.309 138.087H192.221C227.331 138.087 246.668 127.039 246.668 97.4499C246.668 72.598 229.702 64.5042 212.542 63.5197H212.536ZM133.824 17.1608H192.019C213.325 17.1608 216.675 23.8674 216.675 37.2806C216.675 50.6938 212.726 57.6018 192.019 57.6018H133.824V55.247V17.1608ZM193.596 120.92H133.824V77.1287V74.7627H193.596C215.691 74.7627 221.016 81.4693 221.016 97.6457C221.016 113.822 216.082 120.92 193.596 120.92Z" fill="#79797E"/>
</svg>
