<svg preserveAspectRatio="none" width="100%" height="100%" overflow="visible" style="display: block;" viewBox="0 0 149.509 140.056" fill="none" xmlns="http://www.w3.org/2000/svg">
<path d="M118.778 31.5641C110.886 11.4443 102.014 0 74.7908 0C47.5672 0 38.2988 11.2429 30.6022 31.5641L7.71915 95.4754C2.32702 110.214 -0.609555 124.455 0.106412 136.571C0.223876 138.523 1.82359 140.056 3.78131 140.056H15.7514C17.3176 140.056 18.7104 139.06 19.2194 137.578L31.9837 100.207H117.794L131.207 140.056H145.755C147.724 140.056 149.335 138.501 149.43 136.532C150.023 124.327 147.232 110.393 141.661 95.4754L118.784 31.5641H118.778ZM38.4946 80.4848L52.6965 38.8636C57.4342 25.4504 61.1818 19.9296 74.7908 19.9296C88.3998 19.9296 92.1474 25.4504 96.8851 38.6678L111.087 80.4904H38.4946V80.4848Z" fill="#79797E"/>
</svg>
