<svg preserveAspectRatio="none" width="100%" height="100%" overflow="visible" style="display: block;" viewBox="0 0 121.122 138.087" fill="none" xmlns="http://www.w3.org/2000/svg">
<path d="M117.452 0H3.66373C1.63889 0 0 1.63889 0 3.66374V119.147C0 129.607 8.47973 138.087 18.9396 138.087H117.458C119.483 138.087 121.122 136.448 121.122 134.423V121.631C121.122 119.606 119.483 117.967 117.458 117.967H24.4659V77.1343H107.596C109.621 77.1343 111.26 75.4954 111.26 73.4706V61.0754C111.26 59.0505 109.621 57.4116 107.596 57.4116H24.4659V20.1198H117.458C119.483 20.1198 121.122 18.4809 121.122 16.4561V3.66374C121.122 1.63889 119.483 0 117.458 0H117.452Z" fill="#79797E"/>
</svg>
