<svg preserveAspectRatio="none" width="100%" height="100%" overflow="visible" style="display: block;" viewBox="0 0 146.566 142.03" fill="none" xmlns="http://www.w3.org/2000/svg">
<path d="M142.908 1.9745H126.368C124.343 1.9745 122.705 3.6134 122.705 5.63824V105.538C122.705 116.781 120.338 122.106 110.869 122.106C101.992 122.106 99.8215 116.781 95.4865 105.141L72.6036 30.9712C65.8914 11.2429 59.9735 0 35.3117 0C6.31506 0 0 15.7848 0 42.0183V136.397C0 138.422 1.63892 140.061 3.66377 140.061H20.2037C22.2286 140.061 23.8675 138.422 23.8675 136.397V36.2962C23.8675 25.249 26.4349 19.924 35.7033 19.924C44.3788 19.924 46.7504 25.0533 50.8952 36.8891L73.7726 111.059C80.675 130.787 86.5929 142.03 111.255 142.03C140.447 142.03 146.566 126.251 146.566 100.012V5.63824C146.566 3.6134 144.927 1.9745 142.903 1.9745H142.908Z" fill="#79797E"/>
</svg>
