<svg preserveAspectRatio="none" width="100%" height="100%" overflow="visible" style="display: block;" viewBox="0 0 130.591 138.081" fill="none" xmlns="http://www.w3.org/2000/svg">
<path d="M90.5252 81.2735C112.385 81.2735 130.575 63.7547 130.591 41.8953C130.614 13.2398 116.619 0 79.1032 0H3.6637C1.63885 0 0 1.63889 0 3.66374V134.417C0 136.442 1.63885 138.081 3.6637 138.081H20.7966C22.8214 138.081 24.4603 136.442 24.4603 134.417V88.3716H53.0654C66.4786 88.3716 70.6234 90.3461 77.1287 99.6146L102.076 136.47C102.758 137.477 103.894 138.081 105.113 138.081H126.821C129.803 138.081 131.537 134.714 129.803 132.292L100.006 90.5419C96.2585 85.0211 92.5109 84.2325 85.2114 84.0367V81.2735H90.514H90.5252ZM78.3201 69.4377H24.4659V19.5269H78.1187C97.847 19.5269 104.945 26.0377 104.945 44.5746C104.945 63.1114 97.847 69.4321 78.3145 69.4321L78.3201 69.4377Z" fill="#79797E"/>
</svg>
