<svg preserveAspectRatio="none" width="100%" height="100%" overflow="visible" style="display: block;" viewBox="0 0 126.637 141.829" fill="none" xmlns="http://www.w3.org/2000/svg">
<path d="M87.197 60.9467L47.5503 55.6217C34.5287 53.4514 25.6518 51.2812 25.6518 37.868C25.6518 26.0321 29.2037 20.1142 59.5819 20.1142H115.489C117.514 20.1142 119.153 18.4753 119.153 16.4505V8.48533C119.153 6.81847 118.034 5.36976 116.417 4.93906C104.906 1.85704 88.931 0 71.6079 0C23.8675 0 0 8.68111 0 40.0438C0 58.5863 9.66557 71.8037 34.1259 75.9429L76.5358 81.665C93.3051 84.2269 100.996 86.99 100.996 101.589C100.996 115.204 96.8514 122.106 65.0915 122.106H4.25104C2.2262 122.106 0.587276 123.745 0.587276 125.77V133.131C0.587276 134.775 1.67803 136.241 3.26658 136.66C17.0042 140.268 35.116 141.829 53.0599 141.829C101.981 141.829 126.637 133.349 126.637 97.2485C126.637 77.9174 118.946 65.6844 87.1858 60.9523L87.197 60.9467Z" fill="#79797E"/>
</svg>
